HIERARCHY
ROOT SpineBase
{
  OFFSET 0.000000 0.000000 0.000000
  CHANNELS 6 Xposition Yposition Zposition Zrotation Xrotation Yrotation
  JOINT SpineMid
  {
    OFFSET -0.000000 35.573722 0.000000
    CHANNELS 3 Zrotation Xrotation Yrotation
    JOINT SpineShoulder
    {
      OFFSET -0.043359 26.337733 -0.823505
      CHANNELS 3 Zrotation Xrotation Yrotation
      JOINT Neck
      {
        OFFSET -0.002256 8.627882 -0.598784
        CHANNELS 3 Zrotation Xrotation Yrotation
        JOINT Head
        {
          OFFSET -11.587123 6.361085 3.953352
          CHANNELS 3 Zrotation Xrotation Yrotation
          End Site
          {
            OFFSET 0 0 0
          }
        }
      }
      JOINT ShoulderLeft
      {
        OFFSET -7.665333 -9.719105 -18.732426
        CHANNELS 3 Zrotation Xrotation Yrotation
        JOINT ElbowLeft
        {
          OFFSET -5.143382 -13.904320 25.137138
          CHANNELS 3 Zrotation Xrotation Yrotation
          JOINT WristLeft
          {
            OFFSET -4.191890 -17.664386 23.490971
            CHANNELS 3 Zrotation Xrotation Yrotation
            JOINT HandLeft
            {
              OFFSET -0.623025 -3.778687 10.751625
              CHANNELS 3 Zrotation Xrotation Yrotation
              JOINT HandTipLeft
              {
                OFFSET -0.650828 2.750936 1.382932
                CHANNELS 3 Zrotation Xrotation Yrotation
                End Site
                {
                  OFFSET 0 0 0
                }
              }
              JOINT ThumbLeft
              {
                OFFSET 0.726606 -2.379114 -3.115592
                CHANNELS 3 Zrotation Xrotation Yrotation
                End Site
                {
                  OFFSET 0 0 0
                }
              }
            }
          }
        }
      }
      JOINT ShoulderRight
      {
        OFFSET 5.510742 -6.488460 -14.007483
        CHANNELS 3 Zrotation Xrotation Yrotation
        JOINT ElbowRight
        {
          OFFSET -3.158073 -23.738703 -4.732949
          CHANNELS 3 Zrotation Xrotation Yrotation
          JOINT WristRight
          {
            OFFSET -9.097904 -18.670208 8.016053
            CHANNELS 3 Zrotation Xrotation Yrotation
            JOINT HandRight
            {
              OFFSET -1.738451 -2.478535 4.924968
              CHANNELS 3 Zrotation Xrotation Yrotation
              JOINT HandTipRight
              {
                OFFSET -4.485491 -3.703044 2.622575
                CHANNELS 3 Zrotation Xrotation Yrotation
                End Site
                {
                  OFFSET 0 0 0
                }
              }
              JOINT ThumbRight
              {
                OFFSET 3.748541 -6.042612 -7.236532
                CHANNELS 3 Zrotation Xrotation Yrotation
                End Site
                {
                  OFFSET 0 0 0
                }
              }
            }
          }
        }
      }
    }
  }
  JOINT HipLeft
  {
    OFFSET -6.806715 1.373707 0.594243
    CHANNELS 3 Zrotation Xrotation Yrotation
    JOINT KneeLeft
    {
      OFFSET 18.095381 -31.400960 17.128856
      CHANNELS 3 Zrotation Xrotation Yrotation
      JOINT AnkleLeft
      {
        OFFSET -6.035874 -29.061018 -1.511227
        CHANNELS 3 Zrotation Xrotation Yrotation
        JOINT FootLeft
        {
          OFFSET 3.085525 -3.744337 -13.004455
          CHANNELS 3 Zrotation Xrotation Yrotation
          End Site
          {
            OFFSET 0 0 0
          }
        }
      }
    }
  }
  JOINT HipRight
  {
    OFFSET 6.351043 -1.102264 -8.356987
    CHANNELS 3 Zrotation Xrotation Yrotation
    JOINT KneeRight
    {
      OFFSET -2.042433 -30.682189 2.539551
      CHANNELS 3 Zrotation Xrotation Yrotation
      JOINT AnkleRight
      {
        OFFSET 5.126864 -38.701427 8.293634
        CHANNELS 3 Zrotation Xrotation Yrotation
        JOINT FootRight
        {
          OFFSET 3.056174 -4.023706 -12.129276
          CHANNELS 3 Zrotation Xrotation Yrotation
          End Site
          {
            OFFSET 0 0 0
          }
        }
      }
    }
  }
}
MOTION
Frames: 13
Frame Time: 0.033333
-10.028165 77.397069 357.663789 -3.374227 -9.286099 18.322622 0.241090 1.381855 -18.666141 0.338656 0.852383 -0.099888 -14.184534 0.782073 0.974969 0.000000 0.000000 0.000000 3.207253 7.060774 0.026685 -0.000000 0.000000 0.000000 -0.000000 0.000000 0.000000 -0.829975 1.051964 0.671795 0.000000 0.000000 0.000000 0.000000 0.000000 0.000000 8.235200 3.756351 -1.018508 -13.392586 2.050057 -1.863414 4.643426 -11.924526 3.165883 -5.497988 15.222563 -7.320605 0.000000 0.000000 0.000000 0.000000 0.000000 0.000000 -17.705940 24.571096 -23.288300 61.847054 -11.322609 18.566471 -31.899313 -40.266169 44.333634 0.000000 0.000000 0.000000 15.027819 24.421839 -22.573969 0.238160 -18.492046 1.914864 -6.248551 -5.146764 9.471953 0.000000 0.000000 0.000000
-10.535379 77.363734 359.404464 -3.250881 -9.691053 19.539921 0.186168 1.239668 -19.884539 0.243376 0.792873 -0.098472 -14.731347 1.420553 1.852911 0.000000 0.000000 0.000000 3.211565 7.681785 0.009329 -0.000000 0.000000 0.000000 -0.000000 0.000000 0.000000 -0.849869 0.865697 0.637175 0.000000 0.000000 0.000000 0.000000 0.000000 0.000000 8.800976 5.178632 -1.407813 -13.128367 2.230092 -1.910250 3.992768 -13.501341 3.715052 -6.946321 15.958112 -8.271438 0.000000 0.000000 0.000000 0.000000 0.000000 0.000000 -17.746238 25.512072 -24.560480 63.260324 -14.576710 20.890144 -28.107172 -34.760588 59.542967 0.000000 0.000000 0.000000 17.681239 26.263563 -24.806018 -0.592049 -20.551853 1.983984 -6.675883 -7.584004 8.803618 0.000000 0.000000 0.000000
-11.303013 77.419971 361.325778 -3.212685 -9.342363 20.236651 0.229715 0.921862 -20.582780 0.073766 0.421882 -0.101654 -15.046433 1.700071 2.239565 0.000000 0.000000 0.000000 3.208514 7.989164 0.000714 -0.000000 0.000000 0.000000 -0.000000 0.000000 0.000000 -0.782421 0.541347 0.524709 0.000000 0.000000 0.000000 0.000000 0.000000 0.000000 9.113063 6.476085 -1.727246 -12.463783 2.805179 -2.202227 3.056842 -14.767236 3.704166 -6.383524 15.385618 -7.598394 0.000000 0.000000 0.000000 0.000000 0.000000 0.000000 -16.011483 23.380312 -25.917379 58.444568 -17.663157 21.200144 -20.489782 -42.197794 61.102163 0.000000 0.000000 0.000000 19.896143 27.211365 -26.279015 -1.381153 -22.012691 2.106265 -7.148035 -9.396786 8.159971 0.000000 0.000000 0.000000
-11.714548 77.429343 362.736546 -2.699114 -8.108692 20.991670 0.157642 0.759569 -21.256999 -0.042629 0.160060 -0.092650 -16.270873 0.790261 2.545871 0.000000 0.000000 0.000000 2.842149 7.192699 0.020594 -0.000000 0.000000 0.000000 -0.000000 0.000000 0.000000 -0.000000 0.000000 0.000000 0.000000 0.000000 0.000000 0.000000 0.000000 0.000000 9.468335 7.949778 -2.279228 -11.937040 2.067638 -2.363552 1.681240 -14.938502 2.725816 -4.304836 14.261470 -6.334396 0.000000 0.000000 0.000000 0.000000 0.000000 0.000000 -16.644048 21.483115 -27.697654 58.009931 -18.783839 22.018949 -22.469811 -39.914175 53.390613 0.000000 0.000000 0.000000 19.692436 26.381957 -26.836181 -1.371985 -21.406784 2.372902 -7.500645 -10.459086 7.617965 0.000000 0.000000 0.000000
-12.245850 77.221788 364.141201 -2.233853 -6.502585 24.123627 0.398257 0.780754 -24.316112 -0.080267 -0.012749 -0.076963 -18.691143 -1.407248 1.865992 0.000000 0.000000 0.000000 2.254377 5.645976 0.046936 -0.000000 0.000000 0.000000 -0.000000 0.000000 0.000000 -0.000000 0.000000 0.000000 0.000000 0.000000 0.000000 0.000000 0.000000 0.000000 9.597654 8.135102 -2.632775 -12.204896 1.482962 -2.646495 0.715537 -14.944956 1.276199 0.843418 14.632927 -4.549185 0.000000 0.000000 0.000000 0.000000 0.000000 0.000000 -15.726655 20.208249 -31.321666 57.192333 -19.982871 22.306394 -29.037152 -26.939616 37.737416 0.000000 0.000000 0.000000 19.535319 23.683768 -29.383633 -0.972337 -19.575911 2.715097 -8.048958 -10.777421 8.075691 0.000000 0.000000 0.000000
-12.580583 77.384476 365.580892 -1.423649 -4.595572 25.571853 0.432149 0.744253 -25.672294 0.028843 0.147538 -0.043475 -21.064301 -3.619436 1.720079 0.000000 0.000000 0.000000 1.320011 3.592337 0.051269 -0.000000 0.000000 0.000000 -0.000000 0.000000 0.000000 -0.000000 0.000000 0.000000 0.000000 0.000000 0.000000 0.000000 0.000000 0.000000 10.141807 7.625490 -3.114012 -13.993394 0.426613 -2.894528 0.938556 -11.280158 -0.874317 5.124092 12.440458 -1.638797 0.000000 0.000000 0.000000 0.000000 0.000000 0.000000 -16.017587 18.847588 -32.910551 56.169737 -20.611882 22.147575 -30.980419 -16.197925 29.960038 0.000000 0.000000 0.000000 17.500791 20.874881 -29.894527 -0.691845 -15.998856 2.970859 -7.543599 -8.911066 7.607616 0.000000 0.000000 0.000000
-13.018969 77.629905 367.433132 -0.577805 -2.848611 27.004109 0.497454 0.722292 -27.037796 0.112185 0.344142 -0.007879 -22.305699 -5.308060 1.528909 0.000000 0.000000 0.000000 0.349422 1.635250 0.019711 -0.000000 0.000000 0.000000 -0.000000 0.000000 0.000000 -0.000000 0.000000 0.000000 0.000000 0.000000 0.000000 0.000000 0.000000 0.000000 10.370007 5.772295 -3.193683 -16.312301 0.541029 -3.358229 1.428161 -9.303574 -2.809505 10.365742 13.816936 0.223557 0.000000 0.000000 0.000000 0.000000 0.000000 0.000000 -16.460066 17.980405 -34.340099 55.709206 -19.859186 21.356631 -32.098333 1.174156 21.961550 0.000000 0.000000 0.000000 15.550384 18.246383 -30.561228 -0.539657 -12.146627 3.203803 -7.544006 -9.485797 7.247159 0.000000 0.000000 0.000000
-13.261102 77.646941 369.289457 0.499082 -1.336020 26.140634 0.140558 1.419238 -26.136556 -0.000000 0.000000 0.000000 -22.507791 -6.668062 1.135308 0.000000 0.000000 0.000000 -0.000000 0.000000 0.000000 -0.000000 0.000000 0.000000 -0.000000 0.000000 0.000000 -0.000000 0.000000 0.000000 0.000000 0.000000 0.000000 0.000000 0.000000 0.000000 11.241509 3.646585 -3.113047 -19.624258 0.539273 -3.883951 2.638175 -6.945170 -4.824288 17.044592 16.522524 2.761200 0.000000 0.000000 0.000000 0.000000 0.000000 0.000000 -17.618079 17.110537 -33.124205 55.715978 -19.693906 20.853248 -32.334205 4.756516 17.241275 0.000000 0.000000 0.000000 13.047298 17.363896 -29.288895 -0.257826 -9.179204 3.512879 -8.414562 -13.760241 7.120462 0.000000 0.000000 0.000000
-13.395652 77.694934 371.294855 1.549111 -0.319592 22.335553 0.349543 0.696943 -22.293008 0.208665 0.699503 0.065116 -22.867674 -7.233921 0.589359 0.000000 0.000000 0.000000 -1.818247 -1.153552 -0.144706 -0.000000 0.000000 0.000000 -0.000000 0.000000 0.000000 -0.000000 0.000000 0.000000 0.000000 0.000000 0.000000 0.000000 0.000000 0.000000 10.307831 1.089199 -2.893850 -22.525451 1.483477 -4.246996 3.144705 -7.127170 -6.529710 23.194955 21.998409 2.786906 0.000000 0.000000 0.000000 0.000000 0.000000 0.000000 -19.864996 15.127661 -29.574284 55.404314 -17.226737 19.419510 -31.734774 11.649833 12.378605 0.000000 0.000000 0.000000 10.236002 18.248012 -25.355331 0.206301 -7.414355 3.931173 -8.849046 -16.028279 6.849973 0.000000 0.000000 0.000000
-13.531663 78.004461 373.107875 2.464146 0.636845 20.334437 0.456386 0.862466 -20.287933 0.147753 0.496812 0.097354 -23.349344 -8.546760 -1.771597 0.000000 0.000000 0.000000 -2.746809 -2.091942 -0.241071 -0.000000 0.000000 0.000000 -0.000000 0.000000 0.000000 -0.000000 0.000000 0.000000 0.000000 0.000000 0.000000 0.000000 0.000000 0.000000 10.105614 -0.731642 -2.713320 -23.673703 2.415446 -4.186659 2.837424 -5.861232 -8.460332 25.320901 22.684610 5.722673 0.000000 0.000000 0.000000 0.000000 0.000000 0.000000 -21.499530 13.915764 -27.838388 54.594503 -14.504435 17.800194 -31.869062 10.816510 13.588367 0.000000 0.000000 0.000000 8.276189 18.038081 -23.179321 0.300051 -5.617941 4.166107 -11.124464 -22.915542 7.987430 0.000000 0.000000 0.000000
-13.766758 78.513357 374.972718 3.052674 0.998887 18.966085 0.345997 0.710002 -18.913449 0.152628 0.511638 0.116176 -21.595232 -8.253265 -2.291105 0.000000 0.000000 0.000000 -3.310606 -2.281299 -0.295948 -0.000000 0.000000 0.000000 -0.000000 0.000000 0.000000 -0.000000 0.000000 0.000000 0.000000 0.000000 0.000000 0.000000 0.000000 0.000000 9.838633 -1.939567 -2.527490 -23.432203 3.733096 -3.851422 1.905616 -5.731209 -9.568446 25.323867 20.587551 10.577394 0.000000 0.000000 0.000000 0.000000 0.000000 0.000000 -22.618139 13.648094 -26.488938 54.232603 -12.753726 16.829973 -32.424146 7.240629 16.206460 0.000000 0.000000 0.000000 7.445038 18.157228 -21.788059 0.123944 -4.594538 4.288947 -12.085663 -25.481547 8.329410 0.000000 0.000000 0.000000
-14.018795 78.866740 376.570102 3.308348 0.924828 18.943485 0.379809 0.689369 -18.883246 0.149073 0.475714 0.126952 -20.586185 -8.047987 -2.966971 0.000000 0.000000 0.000000 -3.601965 -2.160319 -0.318149 -0.000000 0.000000 0.000000 -0.000000 0.000000 0.000000 -0.320695 0.888086 0.372609 0.000000 0.000000 0.000000 0.000000 0.000000 0.000000 9.605094 -2.348196 -2.457276 -22.221283 4.907311 -3.514144 1.593448 -7.418699 -7.438934 20.508760 17.799960 7.588558 0.000000 0.000000 0.000000 0.000000 0.000000 0.000000 -22.763711 14.416945 -25.972472 53.594588 -12.673199 16.496786 -33.387525 -6.351574 23.906884 0.000000 0.000000 0.000000 7.352487 18.784916 -21.895173 0.397650 -4.709389 4.489675 -12.515488 -25.899502 8.413030 0.000000 0.000000 0.000000
-14.424943 79.531162 378.199750 3.347167 0.837924 19.538939 0.225190 0.441600 -19.469264 0.116540 0.368816 0.126620 -18.270233 -7.373729 -3.719160 0.000000 0.000000 0.000000 -3.535086 -1.683237 -0.297503 -0.000000 0.000000 0.000000 -0.000000 0.000000 0.000000 -0.009305 1.529615 0.364267 0.000000 0.000000 0.000000 0.000000 0.000000 0.000000 9.258594 -2.137844 -2.410725 -20.399012 6.069390 -3.368970 1.097720 -9.940806 -5.073761 17.034344 16.838734 4.040679 0.000000 0.000000 0.000000 0.000000 0.000000 0.000000 -23.148595 14.769619 -26.850102 53.533163 -9.926488 15.405105 -33.480133 -22.121184 29.991211 0.000000 0.000000 0.000000 8.161537 18.801024 -22.604678 -0.070335 -4.590730 4.439120 -12.352678 -24.918721 8.470609 0.000000 0.000000 0.000000
